<mxfile host="Electron" agent="Mozilla/5.0 (Windows NT 10.0; Win64; x64) AppleWebKit/537.36 (KHTML, like Gecko) draw.io/27.0.9 Chrome/134.0.6998.205 Electron/35.4.0 Safari/537.36" version="27.0.9">
  <diagram name="Страница — 1" id="uITDezHXASV0zUFRutUA">
    <mxGraphModel dx="2492" dy="883" grid="1" gridSize="10" guides="1" tooltips="1" connect="1" arrows="1" fold="1" page="1" pageScale="1" pageWidth="827" pageHeight="1169" math="0" shadow="0">
      <root>
        <mxCell id="0" />
        <mxCell id="1" parent="0" />
        <mxCell id="L0U-qAGiC4I6rqvHUmn5-3" style="edgeStyle=orthogonalEdgeStyle;rounded=0;orthogonalLoop=1;jettySize=auto;html=1;exitX=0.5;exitY=1;exitDx=0;exitDy=0;entryX=0.5;entryY=0;entryDx=0;entryDy=0;" edge="1" parent="1" source="L0U-qAGiC4I6rqvHUmn5-1" target="L0U-qAGiC4I6rqvHUmn5-2">
          <mxGeometry relative="1" as="geometry" />
        </mxCell>
        <mxCell id="L0U-qAGiC4I6rqvHUmn5-1" value="НАЧАЛО" style="rounded=1;whiteSpace=wrap;html=1;" vertex="1" parent="1">
          <mxGeometry x="350" y="40" width="120" height="60" as="geometry" />
        </mxCell>
        <mxCell id="L0U-qAGiC4I6rqvHUmn5-7" style="edgeStyle=orthogonalEdgeStyle;rounded=0;orthogonalLoop=1;jettySize=auto;html=1;exitX=0;exitY=0.5;exitDx=0;exitDy=0;entryX=0.5;entryY=0;entryDx=0;entryDy=0;" edge="1" parent="1" source="L0U-qAGiC4I6rqvHUmn5-2" target="L0U-qAGiC4I6rqvHUmn5-4">
          <mxGeometry relative="1" as="geometry" />
        </mxCell>
        <mxCell id="L0U-qAGiC4I6rqvHUmn5-2" value="Ввод первого числа" style="rounded=0;whiteSpace=wrap;html=1;" vertex="1" parent="1">
          <mxGeometry x="354" y="130" width="120" height="60" as="geometry" />
        </mxCell>
        <mxCell id="L0U-qAGiC4I6rqvHUmn5-6" style="edgeStyle=orthogonalEdgeStyle;rounded=0;orthogonalLoop=1;jettySize=auto;html=1;exitX=0.5;exitY=1;exitDx=0;exitDy=0;" edge="1" parent="1" source="L0U-qAGiC4I6rqvHUmn5-4" target="L0U-qAGiC4I6rqvHUmn5-5">
          <mxGeometry relative="1" as="geometry" />
        </mxCell>
        <mxCell id="L0U-qAGiC4I6rqvHUmn5-4" value="Ввод операции +,-,*,/." style="rounded=0;whiteSpace=wrap;html=1;" vertex="1" parent="1">
          <mxGeometry x="130" y="200" width="120" height="60" as="geometry" />
        </mxCell>
        <mxCell id="L0U-qAGiC4I6rqvHUmn5-9" style="edgeStyle=orthogonalEdgeStyle;rounded=0;orthogonalLoop=1;jettySize=auto;html=1;exitX=0.5;exitY=1;exitDx=0;exitDy=0;entryX=0.5;entryY=0;entryDx=0;entryDy=0;" edge="1" parent="1" source="L0U-qAGiC4I6rqvHUmn5-5" target="L0U-qAGiC4I6rqvHUmn5-8">
          <mxGeometry relative="1" as="geometry" />
        </mxCell>
        <mxCell id="L0U-qAGiC4I6rqvHUmn5-26" style="edgeStyle=orthogonalEdgeStyle;rounded=0;orthogonalLoop=1;jettySize=auto;html=1;exitX=1;exitY=0.5;exitDx=0;exitDy=0;entryX=0.5;entryY=0;entryDx=0;entryDy=0;" edge="1" parent="1" source="L0U-qAGiC4I6rqvHUmn5-5" target="L0U-qAGiC4I6rqvHUmn5-25">
          <mxGeometry relative="1" as="geometry" />
        </mxCell>
        <mxCell id="L0U-qAGiC4I6rqvHUmn5-5" value="Ввод второго числа" style="rounded=0;whiteSpace=wrap;html=1;" vertex="1" parent="1">
          <mxGeometry x="130" y="290" width="120" height="60" as="geometry" />
        </mxCell>
        <mxCell id="L0U-qAGiC4I6rqvHUmn5-11" style="edgeStyle=orthogonalEdgeStyle;rounded=0;orthogonalLoop=1;jettySize=auto;html=1;exitX=0;exitY=0.5;exitDx=0;exitDy=0;entryX=0.5;entryY=0;entryDx=0;entryDy=0;" edge="1" parent="1" source="L0U-qAGiC4I6rqvHUmn5-8" target="L0U-qAGiC4I6rqvHUmn5-10">
          <mxGeometry relative="1" as="geometry" />
        </mxCell>
        <mxCell id="L0U-qAGiC4I6rqvHUmn5-16" style="edgeStyle=orthogonalEdgeStyle;rounded=0;orthogonalLoop=1;jettySize=auto;html=1;exitX=0;exitY=1;exitDx=0;exitDy=0;entryX=0.5;entryY=0;entryDx=0;entryDy=0;" edge="1" parent="1" source="L0U-qAGiC4I6rqvHUmn5-8" target="L0U-qAGiC4I6rqvHUmn5-12">
          <mxGeometry relative="1" as="geometry">
            <Array as="points">
              <mxPoint x="90" y="455" />
            </Array>
          </mxGeometry>
        </mxCell>
        <mxCell id="L0U-qAGiC4I6rqvHUmn5-17" style="edgeStyle=orthogonalEdgeStyle;rounded=0;orthogonalLoop=1;jettySize=auto;html=1;exitX=1;exitY=1;exitDx=0;exitDy=0;entryX=0.5;entryY=0;entryDx=0;entryDy=0;" edge="1" parent="1" source="L0U-qAGiC4I6rqvHUmn5-8" target="L0U-qAGiC4I6rqvHUmn5-13">
          <mxGeometry relative="1" as="geometry">
            <Array as="points">
              <mxPoint x="310" y="455" />
            </Array>
          </mxGeometry>
        </mxCell>
        <mxCell id="L0U-qAGiC4I6rqvHUmn5-18" style="edgeStyle=orthogonalEdgeStyle;rounded=0;orthogonalLoop=1;jettySize=auto;html=1;exitX=1;exitY=0.5;exitDx=0;exitDy=0;entryX=0.5;entryY=0;entryDx=0;entryDy=0;" edge="1" parent="1" source="L0U-qAGiC4I6rqvHUmn5-8" target="L0U-qAGiC4I6rqvHUmn5-15">
          <mxGeometry relative="1" as="geometry" />
        </mxCell>
        <mxCell id="L0U-qAGiC4I6rqvHUmn5-8" value="Проверка операции" style="rhombus;whiteSpace=wrap;html=1;" vertex="1" parent="1">
          <mxGeometry x="130" y="380" width="120" height="100" as="geometry" />
        </mxCell>
        <mxCell id="L0U-qAGiC4I6rqvHUmn5-20" style="edgeStyle=orthogonalEdgeStyle;rounded=0;orthogonalLoop=1;jettySize=auto;html=1;exitX=0.5;exitY=1;exitDx=0;exitDy=0;entryX=0;entryY=0.5;entryDx=0;entryDy=0;" edge="1" parent="1" source="L0U-qAGiC4I6rqvHUmn5-10" target="L0U-qAGiC4I6rqvHUmn5-19">
          <mxGeometry relative="1" as="geometry" />
        </mxCell>
        <mxCell id="L0U-qAGiC4I6rqvHUmn5-10" value="Вычислить сумму: n1 + n2" style="rounded=0;whiteSpace=wrap;html=1;" vertex="1" parent="1">
          <mxGeometry x="-130" y="510" width="120" height="60" as="geometry" />
        </mxCell>
        <mxCell id="L0U-qAGiC4I6rqvHUmn5-21" style="edgeStyle=orthogonalEdgeStyle;rounded=0;orthogonalLoop=1;jettySize=auto;html=1;exitX=0.5;exitY=1;exitDx=0;exitDy=0;entryX=0.25;entryY=0;entryDx=0;entryDy=0;" edge="1" parent="1" source="L0U-qAGiC4I6rqvHUmn5-12" target="L0U-qAGiC4I6rqvHUmn5-19">
          <mxGeometry relative="1" as="geometry" />
        </mxCell>
        <mxCell id="L0U-qAGiC4I6rqvHUmn5-12" value="Вычислить разность: n1 - n2" style="rounded=0;whiteSpace=wrap;html=1;" vertex="1" parent="1">
          <mxGeometry x="30" y="510" width="120" height="60" as="geometry" />
        </mxCell>
        <mxCell id="L0U-qAGiC4I6rqvHUmn5-13" value="Вычислить произведение: n1 *&lt;span style=&quot;color: rgba(0, 0, 0, 0); font-family: monospace; font-size: 0px; text-align: start; text-wrap-mode: nowrap;&quot;&gt;%3CmxGraphModel%3E%3Croot%3E%3CmxCell%20id%3D%220%22%2F%3E%3CmxCell%20id%3D%221%22%20parent%3D%220%22%2F%3E%3CmxCell%20id%3D%222%22%20value%3D%22%D0%92%D1%8B%D1%87%D0%B8%D1%81%D0%BB%D0%B8%D1%82%D1%8C%20%D1%80%D0%B0%D0%B7%D0%BD%D0%BE%D1%81%D1%82%D1%8C%3A%20n1%20-%20n2%22%20style%3D%22rounded%3D0%3BwhiteSpace%3Dwrap%3Bhtml%3D1%3B%22%20vertex%3D%221%22%20parent%3D%221%22%3E%3CmxGeometry%20x%3D%2290%22%20y%3D%22510%22%20width%3D%22120%22%20height%3D%2260%22%20as%3D%22geometry%22%2F%3E%3C%2FmxCell%3E%3C%2Froot%3E%3C%2FmxGraphModel%3E&lt;/span&gt;&amp;nbsp;n2" style="rounded=0;whiteSpace=wrap;html=1;" vertex="1" parent="1">
          <mxGeometry x="250" y="510" width="120" height="60" as="geometry" />
        </mxCell>
        <mxCell id="L0U-qAGiC4I6rqvHUmn5-24" style="edgeStyle=orthogonalEdgeStyle;rounded=0;orthogonalLoop=1;jettySize=auto;html=1;exitX=0.5;exitY=1;exitDx=0;exitDy=0;entryX=1;entryY=0.5;entryDx=0;entryDy=0;" edge="1" parent="1" source="L0U-qAGiC4I6rqvHUmn5-15" target="L0U-qAGiC4I6rqvHUmn5-19">
          <mxGeometry relative="1" as="geometry" />
        </mxCell>
        <mxCell id="L0U-qAGiC4I6rqvHUmn5-15" value="Вычислить частное: n1 /&amp;nbsp;&lt;span style=&quot;color: rgba(0, 0, 0, 0); font-family: monospace; font-size: 0px; text-align: start; text-wrap-mode: nowrap;&quot;&gt;%3CmxGraphModel%3E%3Croot%3E%3CmxCell%20id%3D%220%22%2F%3E%3CmxCell%20id%3D%221%22%20parent%3D%220%22%2F%3E%3CmxCell%20id%3D%222%22%20value%3D%22%D0%92%D1%8B%D1%87%D0%B8%D1%81%D0%BB%D0%B8%D1%82%D1%8C%20%D1%80%D0%B0%D0%B7%D0%BD%D0%BE%D1%81%D1%82%D1%8C%3A%20n1%20-%20n2%22%20style%3D%22rounded%3D0%3BwhiteSpace%3Dwrap%3Bhtml%3D1%3B%22%20vertex%3D%221%22%20parent%3D%221%22%3E%3CmxGeometry%20x%3D%2290%22%20y%3D%22510%22%20width%3D%22120%22%20height%3D%2260%22%20as%3D%22geometry%22%2F%3E%3C%2FmxCell%3E%3C%2Froot%3E%3C%2FmxGraphModel%&lt;/span&gt;n2" style="rounded=0;whiteSpace=wrap;html=1;" vertex="1" parent="1">
          <mxGeometry x="413.5" y="510" width="120" height="60" as="geometry" />
        </mxCell>
        <mxCell id="L0U-qAGiC4I6rqvHUmn5-38" style="edgeStyle=orthogonalEdgeStyle;rounded=0;orthogonalLoop=1;jettySize=auto;html=1;exitX=0.5;exitY=1;exitDx=0;exitDy=0;" edge="1" parent="1" source="L0U-qAGiC4I6rqvHUmn5-19" target="L0U-qAGiC4I6rqvHUmn5-35">
          <mxGeometry relative="1" as="geometry" />
        </mxCell>
        <mxCell id="L0U-qAGiC4I6rqvHUmn5-19" value="Результат" style="rounded=0;whiteSpace=wrap;html=1;" vertex="1" parent="1">
          <mxGeometry x="140" y="640" width="120" height="60" as="geometry" />
        </mxCell>
        <mxCell id="L0U-qAGiC4I6rqvHUmn5-22" style="edgeStyle=orthogonalEdgeStyle;rounded=0;orthogonalLoop=1;jettySize=auto;html=1;exitX=0.5;exitY=1;exitDx=0;exitDy=0;entryX=0.7;entryY=0.033;entryDx=0;entryDy=0;entryPerimeter=0;" edge="1" parent="1" source="L0U-qAGiC4I6rqvHUmn5-13" target="L0U-qAGiC4I6rqvHUmn5-19">
          <mxGeometry relative="1" as="geometry" />
        </mxCell>
        <mxCell id="L0U-qAGiC4I6rqvHUmn5-30" style="edgeStyle=orthogonalEdgeStyle;rounded=0;orthogonalLoop=1;jettySize=auto;html=1;exitX=0;exitY=0.5;exitDx=0;exitDy=0;entryX=0.75;entryY=0;entryDx=0;entryDy=0;" edge="1" parent="1" source="L0U-qAGiC4I6rqvHUmn5-25" target="L0U-qAGiC4I6rqvHUmn5-15">
          <mxGeometry relative="1" as="geometry" />
        </mxCell>
        <mxCell id="L0U-qAGiC4I6rqvHUmn5-43" value="НЕТ" style="edgeLabel;html=1;align=center;verticalAlign=middle;resizable=0;points=[];" vertex="1" connectable="0" parent="L0U-qAGiC4I6rqvHUmn5-30">
          <mxGeometry x="-0.5055" y="1" relative="1" as="geometry">
            <mxPoint as="offset" />
          </mxGeometry>
        </mxCell>
        <mxCell id="L0U-qAGiC4I6rqvHUmn5-32" style="edgeStyle=orthogonalEdgeStyle;rounded=0;orthogonalLoop=1;jettySize=auto;html=1;exitX=1;exitY=0.5;exitDx=0;exitDy=0;entryX=0.5;entryY=0;entryDx=0;entryDy=0;" edge="1" parent="1" source="L0U-qAGiC4I6rqvHUmn5-25" target="L0U-qAGiC4I6rqvHUmn5-31">
          <mxGeometry relative="1" as="geometry" />
        </mxCell>
        <mxCell id="L0U-qAGiC4I6rqvHUmn5-44" value="ДА" style="edgeLabel;html=1;align=center;verticalAlign=middle;resizable=0;points=[];" vertex="1" connectable="0" parent="L0U-qAGiC4I6rqvHUmn5-32">
          <mxGeometry x="-0.5" y="-2" relative="1" as="geometry">
            <mxPoint as="offset" />
          </mxGeometry>
        </mxCell>
        <mxCell id="L0U-qAGiC4I6rqvHUmn5-25" value="Второе число = 0?" style="rhombus;whiteSpace=wrap;html=1;" vertex="1" parent="1">
          <mxGeometry x="650" y="380" width="120" height="100" as="geometry" />
        </mxCell>
        <mxCell id="L0U-qAGiC4I6rqvHUmn5-34" style="edgeStyle=orthogonalEdgeStyle;rounded=0;orthogonalLoop=1;jettySize=auto;html=1;exitX=0.5;exitY=1;exitDx=0;exitDy=0;entryX=0.5;entryY=0;entryDx=0;entryDy=0;" edge="1" parent="1" source="L0U-qAGiC4I6rqvHUmn5-31" target="L0U-qAGiC4I6rqvHUmn5-33">
          <mxGeometry relative="1" as="geometry" />
        </mxCell>
        <mxCell id="L0U-qAGiC4I6rqvHUmn5-31" value="Ошибка: Деление на ноль!" style="rounded=0;whiteSpace=wrap;html=1;" vertex="1" parent="1">
          <mxGeometry x="840" y="500" width="120" height="60" as="geometry" />
        </mxCell>
        <mxCell id="L0U-qAGiC4I6rqvHUmn5-39" style="edgeStyle=orthogonalEdgeStyle;rounded=0;orthogonalLoop=1;jettySize=auto;html=1;exitX=0.5;exitY=1;exitDx=0;exitDy=0;entryX=0.5;entryY=0;entryDx=0;entryDy=0;" edge="1" parent="1" source="L0U-qAGiC4I6rqvHUmn5-33" target="L0U-qAGiC4I6rqvHUmn5-35">
          <mxGeometry relative="1" as="geometry" />
        </mxCell>
        <mxCell id="L0U-qAGiC4I6rqvHUmn5-33" value="Сбросить калькулятор" style="rounded=0;whiteSpace=wrap;html=1;" vertex="1" parent="1">
          <mxGeometry x="840" y="580" width="120" height="60" as="geometry" />
        </mxCell>
        <mxCell id="L0U-qAGiC4I6rqvHUmn5-36" style="edgeStyle=orthogonalEdgeStyle;rounded=0;orthogonalLoop=1;jettySize=auto;html=1;exitX=1;exitY=0.5;exitDx=0;exitDy=0;entryX=1;entryY=0.5;entryDx=0;entryDy=0;" edge="1" parent="1" source="L0U-qAGiC4I6rqvHUmn5-35" target="L0U-qAGiC4I6rqvHUmn5-2">
          <mxGeometry relative="1" as="geometry" />
        </mxCell>
        <mxCell id="L0U-qAGiC4I6rqvHUmn5-37" value="ДА" style="edgeLabel;html=1;align=center;verticalAlign=middle;resizable=0;points=[];" vertex="1" connectable="0" parent="L0U-qAGiC4I6rqvHUmn5-36">
          <mxGeometry x="-0.9079" y="-1" relative="1" as="geometry">
            <mxPoint as="offset" />
          </mxGeometry>
        </mxCell>
        <mxCell id="L0U-qAGiC4I6rqvHUmn5-41" style="edgeStyle=orthogonalEdgeStyle;rounded=0;orthogonalLoop=1;jettySize=auto;html=1;exitX=0.5;exitY=1;exitDx=0;exitDy=0;entryX=0.5;entryY=0;entryDx=0;entryDy=0;" edge="1" parent="1" source="L0U-qAGiC4I6rqvHUmn5-35" target="L0U-qAGiC4I6rqvHUmn5-40">
          <mxGeometry relative="1" as="geometry" />
        </mxCell>
        <mxCell id="L0U-qAGiC4I6rqvHUmn5-42" value="НЕТ" style="edgeLabel;html=1;align=center;verticalAlign=middle;resizable=0;points=[];" vertex="1" connectable="0" parent="L0U-qAGiC4I6rqvHUmn5-41">
          <mxGeometry x="-0.16" relative="1" as="geometry">
            <mxPoint as="offset" />
          </mxGeometry>
        </mxCell>
        <mxCell id="L0U-qAGiC4I6rqvHUmn5-35" value="Продолжить вычисления?" style="rhombus;whiteSpace=wrap;html=1;" vertex="1" parent="1">
          <mxGeometry x="840" y="670" width="120" height="100" as="geometry" />
        </mxCell>
        <mxCell id="L0U-qAGiC4I6rqvHUmn5-40" value="КОНЕЦ" style="rounded=1;whiteSpace=wrap;html=1;" vertex="1" parent="1">
          <mxGeometry x="840" y="820" width="120" height="60" as="geometry" />
        </mxCell>
        <mxCell id="L0U-qAGiC4I6rqvHUmn5-45" value="&lt;font style=&quot;font-size: 18px;&quot;&gt;ДМИТРИЕВА&lt;/font&gt;" style="text;html=1;align=center;verticalAlign=middle;resizable=0;points=[];autosize=1;strokeColor=none;fillColor=none;" vertex="1" parent="1">
          <mxGeometry x="55" y="733" width="130" height="40" as="geometry" />
        </mxCell>
      </root>
    </mxGraphModel>
  </diagram>
</mxfile>
